# xmcd
#
# Track frame offsets: 
#        150
#        16350
#        28380
#        53010
#        73217
#        82595
#        91255
#        105737
#        115885
#        132257
#        162440
#        182295
#        194935
#        217622
#        236035
#        253687
#        272207
#        294802
#        303510
#        317855
#        330610
#
# Disc length: 4594 seconds
#
# Revision: 2
# Processed by: cddbd v1.5.2PL0 Copyright (c) Steve Scherf et al.
# Submitted via: ExactAudioCopy v0.99pb4
#
DISCID=2b11f015
DTITLE=Various Artist - The Greatest Christmas Show On Earth [CD1]
DYEAR=1998
DGENRE=Christmas
TTITLE0=Luciano Pavarotti and National Philharmonic Orchestra - Adeste F
TTITLE0=ideles (O Come All Ye Faithfull)
TTITLE1=The Bach Choir - Stille Nacht (Silent Night)
TTITLE2=Leontyne Price and Wiener Philharmoniker - Ave Maria
TTITLE3=Robin Barter and The Choir Of King's College - Once In Royal Dav
TTITLE3=id's City
TTITLE4=The Choir Of King's College - Ding Dong! Merrily On High
TTITLE5=Joan Sutherland and New Philharmonia Orchestra - Joy To The Worl
TTITLE5=d
TTITLE6=Simon Keenlyside, Richard Stuart and The Choir Of St. John's Col
TTITLE6=lege - Good King Wenceslas
TTITLE7=Renata Tebaldi and New Philharmonia Orchestra - Wiegenlied (Lull
TTITLE7=aby)
TTITLE8=The Choir Of King's College - In Dulci Jubilo
TTITLE9=Stuttgarter Kammerorchester - Pastoral Sinfonia
TTITLE10=Chicago Symphony Chorus and Orchestra - For Unto Us A Child Is 
TTITLE10=Born
TTITLE11=Kiri Te Kanawa and Utah Symphony Orchestra - Ave Maria
TTITLE12=St. Anthony Singers and The Goldsbrough Orchestra - Shepherds' 
TTITLE12=Farewell (Adieu des Bergers) (L'Enfance du Christ)
TTITLE13=Luciano Pavarotti and National Philharmonic Orchestra - Mille C
TTITLE13=herubini In Coro
TTITLE14=The Choir Of King's College - See Amid The Winter's Snow
TTITLE15=Anthony Way and Tom Finucane - What Child Is This
TTITLE16=The Choir Of King's College - The First Nowell
TTITLE17=Leontyne Price and Singverein der Gesellschaft der Musikfreunde
TTITLE17=O Tannenbaum
TTITLE18=The Choir Of King's College - While Shepherds Watched
TTITLE19=Anthony Way and The Choir Of St. Paul's Cathedral - Away In A M
TTITLE19=anger
TTITLE20=The Bach Choir and Philip Jones Brass Ensemble - Hark! The Hera
TTITLE20=ld Angels Sing
EXTD=
EXTT0=
EXTT1=
EXTT2=
EXTT3=
EXTT4=
EXTT5=
EXTT6=
EXTT7=
EXTT8=
EXTT9=
EXTT10=
EXTT11=
EXTT12=
EXTT13=
EXTT14=
EXTT15=
EXTT16=
EXTT17=
EXTT18=
EXTT19=
EXTT20=
PLAYORDER=
